<svg xmlns="http://www.w3.org/2000/svg" viewBox="0 0 512 512">
  <rect width="512" height="512" rx="96" fill="#09090b"/>
  <!-- Indigo to violet gradient background tile -->
  <defs>
    <linearGradient id="g" x1="0%" y1="0%" x2="100%" y2="100%">
      <stop offset="0%" stop-color="#6366f1"/>
      <stop offset="100%" stop-color="#7c3aed"/>
    </linearGradient>
  </defs>
  <rect x="80" y="80" width="352" height="352" rx="64" fill="url(#g)"/>
  <!-- Wifi signal arcs -->
  <circle cx="256" cy="296" r="28" fill="white"/>
  <path d="M178 218 C200 196 232 184 256 184 C280 184 312 196 334 218"
        stroke="white" stroke-width="26" stroke-linecap="round" fill="none" opacity="0.85"/>
  <path d="M136 176 C172 140 212 120 256 120 C300 120 340 140 376 176"
        stroke="white" stroke-width="26" stroke-linecap="round" fill="none" opacity="0.45"/>
  <!-- Shield accent bottom-right -->
  <path d="M370 330 L370 370 Q370 390 350 398 L330 406 L310 398 Q290 390 290 370 L290 330 L330 318 Z"
        fill="white" opacity="0.20"/>
  <path d="M320 360 L328 368 L346 346" stroke="white" stroke-width="5" stroke-linecap="round" stroke-linejoin="round" fill="none" opacity="0.6"/>
</svg>
